<?xml version="1.0" encoding="UTF-8"?>
<!-- Generator: Adobe Illustrator 25.2.3, SVG Export Plug-In . SVG Version: 6.00 Build 0)  -->
<svg xmlns="http://www.w3.org/2000/svg" xmlns:xlink="http://www.w3.org/1999/xlink" version="1.1" id="Capa_1" x="0px" y="0px" viewBox="0 0 512 512" style="enable-background:new 0 0 512 512;" xml:space="preserve" width="512" height="512">
<g>
	<g>
		<g>
			<path style="fill-rule:evenodd;clip-rule:evenodd;fill:#F7BE4A;" d="M413.786,102.038c-1.709,1.394-2.044,3.683-2.923,5.648     c-1.663,3.726-3.6,7.081-8.319,7.612c-2.494,0.278-4.801-0.533-5.286,1.211c-0.434,1.531,1.559,2.593,2.05,3.123     c2.086,2.229,3.699,4.566,3.523,8.446c-0.23,4.852-3.346,11.196-0.344,11.914c2.207,0.535,3.612-3.77,4.38-5.166     c2.482-4.513,3.924-7.807,8.593-9.351c1.425-0.47,5.057-0.058,5.444-2.202c0.392-2.187-2.584-2.986-3.433-4.107     c-1.334-1.749-2.183-4.406-2.144-7.47c0.043-2.875,1.206-6.483,0.83-8.528C416.142,102.229,415.243,101.201,413.786,102.038z"/>
		</g>
		<g>
			<path style="fill-rule:evenodd;clip-rule:evenodd;fill:#F7BE4A;" d="M64.595,401.866c1.71,1.394,2.045,3.678,2.923,5.649     c1.663,3.729,3.6,7.083,8.318,7.609c2.495,0.277,4.804-0.533,5.286,1.216c0.435,1.529-1.558,2.59-2.049,3.116     c-2.087,2.229-3.699,4.573-3.524,8.449c0.232,4.853,3.348,11.196,0.344,11.917c-2.208,0.535-3.61-3.772-4.378-5.171     c-2.484-4.51-3.925-7.807-8.596-9.348c-1.424-0.468-5.056-0.056-5.443-2.204c-0.392-2.183,2.583-2.981,3.433-4.107     c1.332-1.746,2.184-4.406,2.145-7.467c-0.044-2.873-1.206-6.48-0.831-8.528C62.24,402.057,63.136,401.03,64.595,401.866z"/>
		</g>
		<g>
			<path style="fill-rule:evenodd;clip-rule:evenodd;fill:#F7BE4A;" d="M188.19,66.111c-1.832,1.083-4.665,1.775-4.297,4.286     c0.471,3.164,4.405,2.105,6.358,3.172c3.291,1.799,3.743,7.052,5.724,11.102c0.522,1.047,1.082,2.506,2.924,2.257     c2.359-0.326,2.197-2.672,2.078-5.41c-0.218-4.908,0.546-9.353,3.249-11.666c1.628-1.397,3.988-1.23,3.6-3.907     c-0.385-2.648-2.742-1.794-4.966-2.402c-3.541-0.982-5.282-5.079-6.887-9.134c-0.361-0.904-0.605-2.168-0.966-2.607     c-1.31-1.565-4.474-1.189-5.095,1.148c-0.352,1.307,0.385,2.892,0.534,4.45C190.769,60.953,190.08,63.695,188.19,66.111z"/>
		</g>
		<g>
			<g>
				<path style="fill-rule:evenodd;clip-rule:evenodd;fill:#F7BE4A;" d="M452.896,453.246c-1.46,0.863-3.715,1.416-3.424,3.415      c0.376,2.52,3.509,1.676,5.065,2.527c2.621,1.435,2.981,5.615,4.56,8.835c0.415,0.837,0.86,1.999,2.327,1.802      c1.88-0.258,1.751-2.125,1.656-4.305c-0.175-3.91,0.434-7.45,2.586-9.293c1.3-1.112,3.176-0.979,2.868-3.109      c-0.305-2.113-2.183-1.433-3.953-1.92c-2.819-0.777-4.21-4.042-5.486-7.272c-0.286-0.719-0.481-1.724-0.769-2.077      c-1.043-1.249-3.564-0.945-4.058,0.919c-0.281,1.037,0.305,2.298,0.425,3.538C454.949,449.141,454.399,451.321,452.896,453.246z      "/>
			</g>
			<g>
				<path style="fill-rule:evenodd;clip-rule:evenodd;fill:#F7BE4A;" d="M481.721,423.088c-0.898,0.232-2.169,0.188-2.315,1.283      c-0.178,1.384,1.597,1.411,2.291,2.091c1.165,1.148,0.727,3.405,1.076,5.338c0.095,0.504,0.157,1.182,0.961,1.298      c1.026,0.149,1.238-0.859,1.515-2.021c0.495-2.089,1.343-3.861,2.754-4.508c0.85-0.391,1.821-0.041,1.977-1.211      c0.153-1.158-0.938-1.078-1.797-1.602c-1.37-0.832-1.611-2.759-1.802-4.652c-0.042-0.422,0.005-0.981-0.094-1.206      c-0.363-0.815-1.735-1.035-2.274-0.125c-0.303,0.504-0.183,1.257-0.306,1.922C483.418,421.231,482.802,422.297,481.721,423.088z      "/>
			</g>
		</g>
		<g>
			<path style="fill-rule:evenodd;clip-rule:evenodd;fill:#F7BE4A;" d="M114.572,222.728c-1.308,0.347-3.156,0.277-3.368,1.876     c-0.26,2.012,2.324,2.048,3.331,3.039c1.695,1.669,1.061,4.952,1.568,7.764c0.139,0.731,0.227,1.717,1.392,1.888     c1.499,0.207,1.807-1.252,2.209-2.942c0.719-3.034,1.954-5.615,4.005-6.558c1.236-0.569,2.647-0.055,2.874-1.761     c0.225-1.683-1.363-1.565-2.612-2.33c-1.992-1.211-2.344-4.013-2.622-6.763c-0.06-0.615,0.008-1.43-0.136-1.761     c-0.528-1.184-2.523-1.5-3.309-0.181c-0.439,0.738-0.264,1.828-0.446,2.802C117.039,220.032,116.143,221.583,114.572,222.728z"/>
		</g>
		<g>
			<path style="fill-rule:evenodd;clip-rule:evenodd;fill:#F7BE4A;" d="M387.458,64.566c-0.983,2.752,0.299,4.402-1.013,7.385     c-0.735,1.683-4.222,2.73-4.218,4.551c0.008,2.433,4.047,2.125,5.343,3.811c1.148,1.479,0.455,5.19,2.945,5.297     c2.53,0.099,1.896-4.807,3.246-7.154c0.863-1.527,3.63-1.999,3.425-4.146c-0.143-1.445-3.141-1.821-4.218-2.675     c-2.245-1.802-1.647-5.246-2.986-7.303C388.886,63.811,388.369,64.218,387.458,64.566z"/>
		</g>
		<g>
			<path style="fill-rule:evenodd;clip-rule:evenodd;fill:#F7BE4A;" d="M116.641,412.763c-0.983,2.752,0.299,4.399-1.014,7.385     c-0.733,1.679-4.221,2.723-4.218,4.551c0.009,2.431,4.047,2.125,5.346,3.808c1.148,1.478,0.455,5.188,2.944,5.296     c2.53,0.099,1.896-4.809,3.247-7.154c0.86-1.531,3.628-1.997,3.424-4.143c-0.145-1.445-3.144-1.821-4.218-2.68     c-2.245-1.797-1.647-5.241-2.986-7.303C118.069,412.008,117.553,412.411,116.641,412.763z"/>
		</g>
	</g>
	<g>
		<g>
			<path style="fill-rule:evenodd;clip-rule:evenodd;fill:#E34E6A;" d="M314.466,15.912c-2.201,8.019-3.114,16.108-4.029,24.178     c-0.948,8.34-1.792,16.719-2.687,25.182c-1.78,16.842-2.048,34.053-3.022,53.051c-0.874,17.044-2.829,34.089-3.695,52.378     c-1.067,22.618-0.822,51.309-18.131,57.753c-4.453,1.657-13.088,1.807-19.474,2.349c-13.181,1.119-25.069,4.351-36.597,7.052     c-6.263,1.466-12.821,3.145-19.475,2.349c-11.918-1.435-20.61-11.292-21.825-22.162c-0.367-3.283-0.035-7.814,0.671-10.742     c1.854-7.686,6.12-13.764,10.073-19.14c5.843-7.94,14.224-14.869,14.438-29.212c0.071-4.783-0.74-9.78-1.679-14.437     c-0.904-4.484-2.403-8.905-2.35-13.432c0.212-17.72,14.362-24.367,19.811-37.267c5.792-13.721-1.233-33.732-0.672-48.688     c1.045-27.905,16.451-43.435,42.979-44.993c10.385-0.612,19.835,0.97,27.197,3.69C303.253,6.508,309.955,10.492,314.466,15.912z"/>
		</g>
		<g>
			<g>
				<g>
					<g>
						<g>
							<path style="fill-rule:evenodd;clip-rule:evenodd;fill:#FFCBD5;" d="M50.551,197.57c-2.485-2.023-9.511-10.354-14.069-12.976         c-1.767-1.022-4.157-1.712-5.386-0.374c-2.593,2.817,3.556,8.875,5.392,11.287c3.199,4.17,5.169,7.277,8,10.749         c-3.164-1.927-9.929-10.048-15.352-13.566c-2.266-1.467-5.151-2.73-6.659-0.946c-1.919,2.262,2.554,7.822,4.007,9.732         c6.95,9.225,14.637,19.572,18.666,27.996c4.637,9.676,7.333,18.68,8.614,29.132c0.311,2.525-0.085,8.065,1.822,9.744         c0.895,0.781,4.035,1.155,5.223,1.109c4.083-0.159,8.746-1.799,14.643-3.589c2.251-0.68,4.521-1.257,7.238-2.513         c2.206-1.008,6.145-2.313,6.923-3.205c1.232-1.365,1.404-5.781,1.48-8.41c0.213-7.65-0.344-18.392-0.339-24.714         c-0.012-5.487-0.005-11.239,0.072-16.519c0.083-4.988,0.439-21.383-5.967-22.254c-5.265-0.724-3.708,15.197-5.052,19.133         c-2.553-6.702-8.406-16.851-16.701-25.548c-2.185-2.277-6.518-7.298-8.901-5.796c-3.265,2.055,0.043,6.184,1.175,8.359         c1.582,3.027,2.454,5.419,4.273,7.776c-3.548-2.607-9.679-10.25-14.285-12.722c-1.505-0.796-3.63-1.201-4.638-0.2         c-2.306,2.318,1.429,5.974,3.42,8.832c2.713,3.902,4.208,6.616,6.137,9.266C50.367,197.423,50.457,197.498,50.551,197.57z"/>
						</g>
						<g>
							<g>
								<path style="fill-rule:evenodd;clip-rule:evenodd;fill:#FF8D9D;" d="M43.099,211.955c-0.245-1.098,0.11-3.546,0.629-5.038          c3.043-8.728,14.237-15.865,20.924-15.935C58.931,193.191,49.601,198.359,43.099,211.955z"/>
							</g>
						</g>
						<g>
							<path style="fill-rule:evenodd;clip-rule:evenodd;fill:#FF8D9D;" d="M80.322,206.931         c-7.819,6.273-11.513,13.231-13.563,20.462C63.641,220.307,73.034,207.565,80.322,206.931z"/>
						</g>
					</g>
					<g>
						<g>
							<path style="fill-rule:evenodd;clip-rule:evenodd;fill:#BAD6E9;" d="M198.918,197.761         c-11.837,6.266-82.868,118.189-85.897,121.02c-6.177-22.645-16.947-65.917-16.947-65.917         c-9.512,3.825-42.771,9.503-44.302,9.794c3.146,21.101,13.167,92.862,21.63,115.203c2.725,7.202,6.617,15.426,11.816,19.391         c8.071,6.15,16.891,2.074,23.497-0.639c23.436-9.635,76.663-44.185,106.044-117.403         C206.574,261.638,207.662,215.08,198.918,197.761z"/>
						</g>
						<g style="opacity:0.41;">
							<path style="fill-rule:evenodd;clip-rule:evenodd;fill:#FFFFFF;" d="M198.918,197.761         c-11.837,6.266-82.868,118.189-85.897,121.02c-6.177-22.645-16.947-65.917-16.947-65.917         c-9.512,3.825-42.771,9.503-44.302,9.794c3.146,21.101,13.167,92.862,21.63,115.203c2.725,7.202,6.617,15.426,11.816,19.391         c8.071,6.15,16.891,2.074,23.497-0.639c23.436-9.635,76.663-44.185,106.044-117.403         C206.574,261.638,207.662,215.08,198.918,197.761z"/>
						</g>
						<g style="opacity:0.25;">
							<path style="fill:#1A4E72;" d="M123.179,339.142c1.959-0.56,1.293-5.984,1.26-8.987c-0.078-7.44-1.417-16.724-3.033-23.578         c-4.318,6.498-7.285,10.892-8.193,11.989c1.568,4.85,3.377,9.626,5.289,14.281         C119.433,335.117,121.044,339.745,123.179,339.142z"/>
						</g>
					</g>
				</g>
				<g>
					<g>
						<g>
							<g>
								<path style="fill:#1A4E72;" d="M32.434,247.394l10.593,5.945c0.534,0.302,1.214,0.108,1.508-0.422          c0.303-0.535,0.109-1.208-0.423-1.51l-2.54-1.428c0.107-0.118,0.198-0.244,0.279-0.379l6.231-11.102          c0.557-0.977,0.229-2.212-0.73-2.752l-2.338-1.315c-0.955-0.543-2.181-0.176-2.73,0.803l-6.242,11.102          c-0.08,0.143-0.131,0.285-0.175,0.432l-2.338-1.314c-0.538-0.302-1.216-0.108-1.517,0.427          C31.71,246.412,31.903,247.09,32.434,247.394"/>
							</g>
							<g>
								<path style="fill:#1A4E72;" d="M36.387,231.727l9.036,5.072l9.029,5.079c1.639,0.921,3.261-0.574,2.397-2.248          c-3.483-6.751-4.943-8.644-7.39-10.019c-2.449-1.372-4.823-1.628-12.396-1.098          C35.184,228.642,34.747,230.808,36.387,231.727"/>
							</g>
						</g>
						<g>
							<g>
								<g>
									<path style="fill:#1A4E72;" d="M80.851,163.969c0.538-0.953,1.75-1.293,2.7-0.757l4.68,2.631           c0.96,0.54,1.298,1.746,0.761,2.708l-3.974,7.074c-0.538,0.953-1.752,1.298-2.704,0.753l-4.683-2.629           c-0.959-0.535-1.298-1.746-0.763-2.701L80.851,163.969z"/>
								</g>
								<g>
									<path style="fill:#1A4E72;" d="M86.986,158.976c0.384-0.369,0.985-0.463,1.478-0.193l1.198,0.678           c0.503,0.287,0.737,0.873,0.591,1.408c-0.019,0.101-1.741,5.202-1.741,5.202c-0.333,0.601-1.1,0.82-1.69,0.478           l-2.934-1.645c-0.594-0.34-0.814-1.098-0.474-1.695C83.414,163.209,86.902,159.056,86.986,158.976"/>
								</g>
							</g>
							<g>
								<g>
									<path style="fill:#1A4E72;" d="M88.435,159.196l0.908,0.499l11.481-21.137l-0.001,0.002           c0.033-0.087,0.007-0.183-0.071-0.227c-0.086-0.051-0.176-0.015-0.231,0.051h-0.006L88.435,159.196z"/>
								</g>
								<g>
									<path style="fill:#1A4E72;" d="M88.123,158.598c0.121-0.21,0.384-0.287,0.601-0.166l1.106,0.625           c0.218,0.121,0.293,0.384,0.17,0.596c-0.115,0.215-0.382,0.285-0.587,0.169l-1.125-0.62           C88.078,159.073,88.002,158.812,88.123,158.598"/>
								</g>
							</g>
							<g>
								<g>
									
										<rect x="77.467" y="173.003" transform="matrix(0.4897 -0.8719 0.8719 0.4897 -113.8096 159.2217)" style="fill:#1A4E72;" width="3.291" height="7.662"/>
								</g>
								<g>
									<path style="fill:#1A4E72;" d="M73.894,171.344c0.295-0.533,0.976-0.721,1.508-0.42l10.584,5.948           c0.532,0.302,0.733,0.979,0.429,1.515c-0.303,0.528-0.972,0.719-1.515,0.422l-10.587-5.952           C73.78,172.56,73.59,171.885,73.894,171.344"/>
								</g>
							</g>
						</g>
						<g>
							<g>
								<g>
									<polygon style="fill:#BAD6E9;" points="75.977,196.836 54.531,235.308 42.484,228.256 63.775,190.063 73.749,185.468                     "/>
								</g>
							</g>
							<g>
								<g>
									<path style="fill:#E34E6A;" d="M75.996,196.864l2.043-3.681l-0.299-0.912l0.935-0.235l2.755-4.963l-0.267-0.85l0.898-0.287           l1.7-3.062c0.619-1.112,0.23-2.535-0.895-3.174l-8.111-4.553c-1.118-0.63-2.543-0.224-3.165,0.899l-7.814,14.02           L75.996,196.864z"/>
								</g>
							</g>
							<g>
								<g>
									<path style="fill:#1A4E72;" d="M77.072,183.888c-0.171,0.309-0.063,0.707,0.245,0.878l4.111,2.309l0.634-1.14l-4.115-2.298           C77.646,183.466,77.243,183.575,77.072,183.888z"/>
								</g>
								<g>
									<path style="fill:#1A4E72;" d="M73.655,189.973c-0.18,0.309-0.066,0.699,0.247,0.873l4.137,2.336l0.637-1.147l-4.138-2.318           C74.214,189.546,73.833,189.66,73.655,189.973z"/>
								</g>
								<g>
									<path style="fill:#1A4E72;" d="M70.236,196.053c-0.174,0.311-0.066,0.707,0.244,0.873l4.148,2.335l0.628-1.136           l-4.136-2.327C70.808,195.634,70.413,195.738,70.236,196.053z"/>
								</g>
								<g>
									<path style="fill:#1A4E72;" d="M66.819,202.129c-0.171,0.319-0.068,0.714,0.244,0.888l4.166,2.34l0.631-1.134l-4.153-2.332           C67.391,201.704,66.993,201.818,66.819,202.129z"/>
								</g>
								<g>
									<path style="fill:#1A4E72;" d="M63.4,208.219c-0.177,0.309-0.066,0.699,0.248,0.88l4.181,2.356l0.631-1.138l-4.176-2.352           C63.973,207.799,63.574,207.908,63.4,208.219z"/>
								</g>
								<g>
									<path style="fill:#1A4E72;" d="M59.984,214.296c-0.177,0.314-0.072,0.714,0.244,0.885l4.206,2.366l0.627-1.131           l-4.192-2.359C60.55,213.879,60.158,213.988,59.984,214.296z"/>
								</g>
								<g>
									<path style="fill:#1A4E72;" d="M56.571,220.386c-0.18,0.302-0.077,0.704,0.239,0.883l4.226,2.373l0.631-1.134l-4.219-2.371           C57.138,219.967,56.738,220.068,56.571,220.386z"/>
								</g>
							</g>
						</g>
					</g>
					<g>
						<g>
							<g>
								<path style="fill-rule:evenodd;clip-rule:evenodd;fill:#FFFFFF;" d="M46.935,228.821c-3.226,0.229,0.086-6.994,2.331-6.112          c2.634,1.032-0.441,5.262-2.026,6.068C47.139,228.823,47.047,228.813,46.935,228.821z"/>
							</g>
							<g>
								<path style="fill-rule:evenodd;clip-rule:evenodd;fill:#FFFFFF;" d="M51.599,222.058c-2.617-0.179-0.168-6.411,2.123-4.961          C55.458,218.204,53.407,222.178,51.599,222.058z"/>
							</g>
						</g>
						<g>
							<g>
								<path style="fill-rule:evenodd;clip-rule:evenodd;fill:#FFFFFF;" d="M71.701,183.167c-2.617-0.181-0.164-6.418,2.121-4.961          C75.557,179.311,73.507,183.285,71.701,183.167z"/>
							</g>
						</g>
					</g>
				</g>
			</g>
			<g>
				<g>
					<g>
						<path style="fill-rule:evenodd;clip-rule:evenodd;fill:#FFFFFF;" d="M171.658,252.828c3.355-1.867,6.544-7.501,9.345-13.219        c1.195-2.45,3.071-6.442,1.003-7.764c-2.481-1.587-5.335,2.619-6.347,4.119c-3.21,4.766-6.119,11.176-6.669,15.033        C169.255,251.868,170.614,252.729,171.658,252.828z"/>
					</g>
					<g>
						<path style="fill-rule:evenodd;clip-rule:evenodd;fill:#FFFFFF;" d="M186.372,242.655c4.485,4.259,12.014-6.985,7.454-9.353        c-1.973-1.025-7.648,3.053-8.501,6.288C185.025,240.754,185.589,241.912,186.372,242.655z"/>
					</g>
				</g>
				<g>
					<g>
						<path style="fill-rule:evenodd;clip-rule:evenodd;fill:#FFFFFF;" d="M87.248,356.331c-5.897,2.709-5.44-14.092,0.214-11.116        C90.409,346.763,88.785,353.579,87.248,356.331z"/>
					</g>
					<g>
						<path style="fill-rule:evenodd;clip-rule:evenodd;fill:#FFFFFF;" d="M80.79,365.617c0.551-1.254,2.364-3.531,4.801-2.231        c3.186,1.693,3.477,8.931,4.139,11.779c0.806,3.461,3.876,9.623,0.931,12.339c-4.198,3.874-7.293-5.996-8.216-9.435        c-0.49-1.828-0.791-3.666-1.13-5.231C80.738,370.153,79.725,368.036,80.79,365.617z"/>
					</g>
				</g>
			</g>
		</g>
		<g>
			<g>
				<polygon style="fill-rule:evenodd;clip-rule:evenodd;fill:#1A4E72;" points="350.551,512 287.868,512 287.868,159.821       338.791,148.449     "/>
			</g>
			<g>
				<g>
					<path style="fill:#BAD6E9;" d="M427.769,439.556c-5.055-38.042-15.109-74.164-15.109-117.516       c0-35.266,9.791-64.627,13.767-97.04c1.328-10.815,3.983-25.071-0.672-33.91c-2.958-5.62-10.548-10.014-17.46-13.432       c-21.67-10.713-44.105-18.202-69.504-24.509c-0.283-0.063-0.316,0.13-0.335,0.338c-2.126,30.719-3.261,61.036-5.708,90.991       c-2.431,29.75-5.298,59.165-7.723,88.977c-2.394,29.443-5.184,60.339-4.702,92.001c0.436,28.513,0.471,57.58-0.4,86.544       h114.416C432.952,487.083,430.925,463.293,427.769,439.556z"/>
				</g>
				<g>
					<g>
						<path style="fill-rule:evenodd;clip-rule:evenodd;fill:#BAD6E9;" d="M338.791,148.449c-1.6,0.35-1.225,2.67-1.342,3.695        c-1.166,10.212-1.508,21.371-2.35,32.232c-2.588,33.428-5.156,72.895-8.058,106.166c-0.21,2.385-1.467,5.644,0.671,7.72        c3.77-0.02,5.457-3.996,7.051-6.717c5.014-8.562,11.158-22.833,15.738-32.683c2.688-5.774,3.005-13.164,6.088-20.093        c2.523-5.673,7.754-14.309,7.051-20.486c-0.362-3.169-2.993-6.266-4.701-9.061c-1.777-2.911-3.931-5.434-4.701-8.731        c3.951-1.623,12.179,1.732,14.772-2.687c1.339-2.274-0.699-7.549-1.677-11.08c-2-7.206-3.809-15.209-6.045-22.16        c-1.224-3.806-2.554-8.902-5.371-11.078C352.121,150.55,343.783,149.339,338.791,148.449z"/>
					</g>
					<g style="opacity:0.41;">
						<path style="fill-rule:evenodd;clip-rule:evenodd;fill:#FFFFFF;" d="M338.791,148.449c-1.6,0.35-1.225,2.67-1.342,3.695        c-1.166,10.212-1.508,21.371-2.35,32.232c-2.588,33.428-5.156,72.895-8.058,106.166c-0.21,2.385-1.467,5.644,0.671,7.72        c3.77-0.02,5.457-3.996,7.051-6.717c5.014-8.562,11.158-22.833,15.738-32.683c2.688-5.774,3.005-13.164,6.088-20.093        c2.523-5.673,7.754-14.309,7.051-20.486c-0.362-3.169-2.993-6.266-4.701-9.061c-1.777-2.911-3.931-5.434-4.701-8.731        c3.951-1.623,12.179,1.732,14.772-2.687c1.339-2.274-0.699-7.549-1.677-11.08c-2-7.206-3.809-15.209-6.045-22.16        c-1.224-3.806-2.554-8.902-5.371-11.078C352.121,150.55,343.783,149.339,338.791,148.449z"/>
					</g>
				</g>
				<g>
					<g>
						<path style="fill-rule:evenodd;clip-rule:evenodd;fill:#BAD6E9;" d="M399.562,422.111c-19.187,0.118-38.106,0.499-54.609,3.3        c1.776,14.382,0.289,29.398,6.231,40.68c3.866,7.344,12.749,13.35,20.157,18.689c2.724,1.961,5.932,4.281,8.795,4.033        c3.649-0.321,8.973-8.145,10.994-10.998c3.541-4.988,5.632-9.278,7.332-14.29c4.022-11.881,1.588-27.189,1.464-40.314        C399.958,422.69,399.986,422.174,399.562,422.111z"/>
					</g>
					<g style="opacity:0.25;">
						<path style="fill-rule:evenodd;clip-rule:evenodd;fill:#1A4E72;" d="M399.562,422.111c-19.187,0.118-38.106,0.499-54.609,3.3        c1.776,14.382,0.289,29.398,6.231,40.68c3.866,7.344,12.749,13.35,20.157,18.689c2.724,1.961,5.932,4.281,8.795,4.033        c3.649-0.321,8.973-8.145,10.994-10.998c3.541-4.988,5.632-9.278,7.332-14.29c4.022-11.881,1.588-27.189,1.464-40.314        C399.958,422.69,399.986,422.174,399.562,422.111z"/>
					</g>
				</g>
			</g>
			<g>
				<g>
					<path style="fill:#BAD6E9;" d="M304.351,432.128c0.482-31.66-2.308-62.558-4.701-92.002       c-2.424-29.813-5.292-59.227-7.724-88.977c-2.447-29.952-3.58-60.274-5.708-90.993c-0.019-0.205-0.049-0.398-0.336-0.335       c-25.399,6.309-47.831,13.796-69.504,24.509c-6.91,3.418-14.5,7.814-17.46,13.432c-4.654,8.842-1.997,23.091-0.671,33.913       c3.978,32.41,13.767,61.769,13.767,97.038c0,43.357-10.054,79.477-15.11,117.521c-2.871,21.603-4.803,43.266-6.173,65.768       h113.836C303.888,485.248,303.948,458.45,304.351,432.128z"/>
				</g>
				<g>
					<g>
						<path style="fill-rule:evenodd;clip-rule:evenodd;fill:#BAD6E9;" d="M285.883,155.118c1.601,0.35,1.226,2.675,1.343,3.697        c1.166,10.212,1.511,21.374,2.35,32.231c2.59,33.433,5.156,67.126,8.059,100.395c0.207,2.388,1.468,5.646-0.673,7.723        c-3.77-0.019-5.456-3.992-7.051-6.715c-5.013-8.564-8.846-18.019-13.429-27.871c-2.689-5.771-5.312-12.206-8.394-19.136        c-2.524-5.677-7.755-14.309-7.05-20.484c0.361-3.174,2.991-6.268,4.698-9.066c1.778-2.914,3.933-5.431,4.701-8.731        c-3.952-1.623-12.178,1.732-14.774-2.687c-1.337-2.274,0.699-7.549,1.68-11.08c2-7.207,3.807-15.206,6.043-22.16        c1.225-3.808,2.556-8.902,5.372-11.08C272.555,157.218,280.892,156.012,285.883,155.118z"/>
					</g>
					<g style="opacity:0.41;">
						<path style="fill-rule:evenodd;clip-rule:evenodd;fill:#FFFFFF;" d="M285.883,155.118c1.601,0.35,1.226,2.675,1.343,3.697        c1.166,10.212,1.511,21.374,2.35,32.231c2.59,33.433,5.156,67.126,8.059,100.395c0.207,2.388,1.468,5.646-0.673,7.723        c-3.77-0.019-5.456-3.992-7.051-6.715c-5.013-8.564-8.846-18.019-13.429-27.871c-2.689-5.771-5.312-12.206-8.394-19.136        c-2.524-5.677-7.755-14.309-7.05-20.484c0.361-3.174,2.991-6.268,4.698-9.066c1.778-2.914,3.933-5.431,4.701-8.731        c-3.952-1.623-12.178,1.732-14.774-2.687c-1.337-2.274,0.699-7.549,1.68-11.08c2-7.207,3.807-15.206,6.043-22.16        c1.225-3.808,2.556-8.902,5.372-11.08C272.555,157.218,280.892,156.012,285.883,155.118z"/>
					</g>
				</g>
				<g>
					<g>
						<g>
							<g>
								<path style="fill:#E34E6A;" d="M237.881,458.074c0.02,2.709,2.272,11.521,4.973,11.502c2.7-0.017,4.826-8.871,4.813-11.57          c-0.019-2.701-2.224-4.874-4.927-4.862C240.036,453.164,237.866,455.378,237.881,458.074"/>
							</g>
							<g>
								<path style="fill:#1A4E72;" d="M242.871,473.826h0.03c0.865-0.01,1.556-0.712,1.553-1.575l-0.029-3.726l-3.155,0.024          l0.025,3.724C241.301,473.138,242.004,473.826,242.871,473.826"/>
							</g>
							<g>
								<path style="fill:#E34E6A;" d="M241.554,381.146c1.31-0.022,2.348-1.085,2.338-2.397l-0.058-4.65          c-0.011-1.31-1.079-2.356-2.389-2.337c-1.306,0.012-2.35,1.081-2.337,2.385l0.052,4.66          C239.176,380.114,240.246,381.161,241.554,381.146"/>
							</g>
							<g>
								<polygon style="fill:#1A4E72;" points="237,376.988 246.679,377.057 246.973,403.321 237.19,403.391         "/>
							</g>
							<g>
								<polygon style="fill:#1A4E72;" points="237.206,406.241 246.995,406.169 247.667,458.002 237.88,458.072         "/>
							</g>
							<g>
								
									<rect x="237.198" y="403.356" transform="matrix(1 -0.0071 0.0071 1 -2.8851 1.7396)" style="fill:#E34E6A;" width="9.787" height="2.848"/>
							</g>
							<g>
								
									<rect x="233.616" y="376.644" transform="matrix(1 -0.0073 0.0073 1 -2.7599 1.771)" style="fill:#E34E6A;" width="13.172" height="1.425"/>
							</g>
							<g>
								
									<rect x="233.712" y="376.682" transform="matrix(1 -0.0094 0.0094 1 -3.6787 2.2334)" style="fill:#E34E6A;" width="2.037" height="28.214"/>
							</g>
						</g>
						<g>
							<g>
								<g>
									<path style="fill-rule:evenodd;clip-rule:evenodd;fill:#FFFFFF;" d="M240.522,381.503           c-2.017-1.375-2.607,4.587-0.809,4.872c2.109,0.328,1.712-3.596,0.989-4.727           C240.656,381.578,240.59,381.552,240.522,381.503z"/>
								</g>
								<g>
									<path style="fill-rule:evenodd;clip-rule:evenodd;fill:#FFFFFF;" d="M240.852,388.725c-1.772-0.88-2.547,4.112-0.504,4.037           C241.898,392.704,242.074,389.327,240.852,388.725z"/>
								</g>
							</g>
							<g>
								<g>
									<path style="fill-rule:evenodd;clip-rule:evenodd;fill:#FFFFFF;" d="M246.895,458.011c0.169-1.379,0.129-3.577-0.877-3.746           c-1.294-0.215-1.214,1.262-1.256,2.393c-0.042,1.121-0.053,2.516,0.992,2.614           C246.897,459.384,246.831,458.554,246.895,458.011z"/>
								</g>
								<g>
									<path style="fill-rule:evenodd;clip-rule:evenodd;fill:#FFFFFF;" d="M244.577,451.244c0.203-1.018-0.069-2.069-0.97-2.105           c-1.53-0.06-1.685,3.388-0.172,3.367C244.009,452.498,244.406,452.085,244.577,451.244z"/>
								</g>
							</g>
						</g>
					</g>
					<g>
						<g>
							<path style="fill-rule:evenodd;clip-rule:evenodd;fill:#BAD6E9;" d="M220.948,422.111c19.186,0.118,38.106,0.499,54.607,3.3         c-1.777,14.382-0.291,29.398-6.231,40.68c-3.865,7.344-12.749,13.35-20.156,18.689c-2.724,1.961-5.932,4.281-8.797,4.033         c-3.649-0.321-8.972-8.145-10.994-10.998c-3.539-4.988-5.632-9.278-7.328-14.29c-4.025-11.881-1.59-27.189-1.467-40.314         C220.551,422.69,220.523,422.174,220.948,422.111z"/>
						</g>
						<g style="opacity:0.25;">
							<path style="fill-rule:evenodd;clip-rule:evenodd;fill:#1A4E72;" d="M220.948,422.111c19.186,0.118,38.106,0.499,54.607,3.3         c-1.777,14.382-0.291,29.398-6.231,40.68c-3.865,7.344-12.749,13.35-20.156,18.689c-2.724,1.961-5.932,4.281-8.797,4.033         c-3.649-0.321-8.972-8.145-10.994-10.998c-3.539-4.988-5.632-9.278-7.328-14.29c-4.025-11.881-1.59-27.189-1.467-40.314         C220.551,422.69,220.523,422.174,220.948,422.111z"/>
						</g>
					</g>
				</g>
			</g>
			<g>
				<g>
					<g>
						<g>
							<path style="fill-rule:evenodd;clip-rule:evenodd;fill:#FFCBD5;" d="M272.054,328.458         c-3.017,1.078-13.779,2.783-18.384,5.328c-1.786,0.989-3.609,2.677-3.1,4.421c1.069,3.676,9.436,1.546,12.449,1.221         c5.224-0.584,8.9-0.658,13.34-1.29c-3.288,1.712-13.739,3.304-19.551,6.128c-2.425,1.182-5.001,2.993-4.257,5.21         c0.949,2.812,8.019,1.855,10.41,1.604c11.485-1.182,24.315-2.412,33.612-1.507c10.681,1.039,19.781,3.384,29.386,7.691         c2.325,1.042,6.863,4.242,9.283,3.478c1.134-0.357,3.075-2.855,3.653-3.895c1.975-3.574,2.981-8.415,4.498-14.389         c0.584-2.282,1.262-4.522,1.591-7.496c0.277-2.412,1.2-6.459,0.838-7.583c-0.535-1.763-4.224-4.192-6.438-5.615         c-6.435-4.139-15.917-9.215-21.327-12.488c-4.703-2.824-9.623-5.805-14.099-8.601c-4.229-2.653-18.079-11.435-22.137-6.401         c-3.339,4.134,11.093,11.032,13.767,14.218c-7.059-1.283-18.768-1.519-30.505,1.083c-3.076,0.694-9.615,1.809-9.56,4.626         c0.071,3.856,5.313,3.159,7.763,3.314c3.409,0.212,5.909,0.704,8.865,0.367c-4.063,1.686-13.779,2.981-18.274,5.651         c-1.463,0.871-2.908,2.482-2.571,3.864c0.792,3.172,5.852,1.867,9.328,1.64c4.745-0.309,7.84-0.181,11.108-0.463         C271.833,328.538,271.945,328.497,272.054,328.458z"/>
						</g>
					</g>
					<g>
						<g>
							<path style="fill-rule:evenodd;clip-rule:evenodd;fill:#BAD6E9;" d="M373.809,217.991         c4.748,12.529,33.125,129.751,34.458,131.524c-21.406-9.621-77.543-39.532-77.543-39.532         c-3.092,9.773-19.676,49.93-20.428,51.295c18.294,10.979,100.172,60.414,122.803,68.081c7.291,2.47,16.115,4.693,22.48,3.201         c9.878-2.325,12.338-11.724,14.437-18.552c7.458-24.217,3.619-138.639-42.541-219.874         C403.211,151.43,358.131,176.626,373.809,217.991z"/>
						</g>
						<g style="opacity:0.41;">
							<path style="fill-rule:evenodd;clip-rule:evenodd;fill:#FFFFFF;" d="M373.809,217.991         c4.748,12.529,33.125,129.751,34.458,131.524c-21.406-9.621-77.543-39.532-77.543-39.532         c-3.092,9.773-19.676,49.93-20.428,51.295c18.294,10.979,100.172,60.414,122.803,68.081c7.291,2.47,16.115,4.693,22.48,3.201         c9.878-2.325,12.338-11.724,14.437-18.552c7.458-24.217,3.619-138.639-42.541-219.874         C403.211,151.43,358.131,176.626,373.809,217.991z"/>
						</g>
						<g style="opacity:0.25;">
							<path style="fill:#1A4E72;" d="M432.841,355.834c-0.499,1.961-5.485,0.333-7.827-0.391         c-5.641-1.734-11.33-3.671-16.847-5.976c0.017,0.01,0.034,0.014,0.051,0.017c-0.051-0.017-3.467-12.648-3.467-12.648         c6.411,3.09,15.971,7.494,21.957,12.312C429.045,351.032,433.221,354.358,432.841,355.834z"/>
						</g>
					</g>
				</g>
				<g>
					<g>
						<g>
							<path style="fill-rule:evenodd;clip-rule:evenodd;fill:#FFFFFF;" d="M420.715,205.539c5.848-0.186-1.273-13.562-4.642-8.892         C414.317,199.087,418.367,203.933,420.715,205.539z"/>
						</g>
						<g>
							<path style="fill-rule:evenodd;clip-rule:evenodd;fill:#FFFFFF;" d="M429.659,210.442c-0.948-0.794-3.327-1.905-4.771,0.123         c-1.893,2.648,0.78,8.61,1.393,11.174c0.743,3.116,0.739,9.324,4.205,10.332c4.947,1.442,3.479-7.771,2.841-10.918         c-0.338-1.671-0.833-3.275-1.19-4.677C431.523,214.079,431.491,211.967,429.659,210.442z"/>
						</g>
					</g>
					<g>
						<g>
							<path style="fill-rule:evenodd;clip-rule:evenodd;fill:#FFFFFF;" d="M408.342,402.691c3.319,0.07,8.027,3.099,12.471,6.355         c1.907,1.387,4.952,3.69,3.896,5.533c-1.262,2.212-5.133,0.147-6.516-0.596c-4.379-2.354-9.184-6.092-11.162-8.827         C406.886,404.387,407.583,403.174,408.342,402.691z"/>
						</g>
						<g>
							<path style="fill-rule:evenodd;clip-rule:evenodd;fill:#FFFFFF;" d="M433.189,407.513c1.723-5.067,12.014,0.509,9.48,4.156         c-1.102,1.582-7.086,0.743-9.042-1.392C432.925,409.51,432.893,408.393,433.189,407.513z"/>
						</g>
						<g>
							<path style="fill-rule:evenodd;clip-rule:evenodd;fill:#FFFFFF;" d="M442.137,418.503c0.422-1.855,3.135-2.327,5.832-1.777         c2.167,0.444,6.114,2.291,4.844,4.486c-0.56,0.984-2.687,1.65-4.941,1.249C445.23,421.995,441.6,420.886,442.137,418.503z"/>
						</g>
					</g>
				</g>
			</g>
			<g>
				<g>
					<g>
						<g>
							<path style="fill-rule:evenodd;clip-rule:evenodd;fill:#1A4E72;" d="M375.336,224.426         c24.673,4.471,16.827,41.992,16.699,68.476c1.152,1.708,4.359,0.745,4.177,3.659c-0.234,3.702-10.918,2.872-13.8,0.808         c-0.555-3.328,2.196-2.8,2.949-4.602c-0.38-17.474,4.248-45.309-2.688-57.389c-2.495-4.341-8.298-6.89-14.514-4.445         c-15.503,6.102-13.413,35.994-16.564,56.661c1.222,2.009,4.516-0.171,4.603,2.955c0.085,3.049-11.203,3.801-11.529,0.236         c-0.186-2.036,1.658-2.412,4.683-2.986c-0.018-24.017-0.387-56.634,19.229-62.401c0.414-20.64-2.555-37.718-12.566-49.602         c-17.518-20.792-65.408-27.02-88.661-10.829c-7.662,5.337-12.814,12.804-16.14,21.793c-3.567,9.645-3.81,20.812-4.797,33.799         c-1.946,25.57-1.075,19.507-4.819,43.068c2.669,3.316,6.265,5.605,4.324,11.466c-1.371,4.148-7.309,7.361-12.004,6.517         c-5.441-0.989-8.314-7.679-6.062-13.089c1.31-3.14,4.61-4.124,7.494-5.74c2.386-32.492,0.336-24.174,2.394-55.137         c1.241-18.667,7.077-36.537,16.828-45.506c11.643-10.706,29.161-13.562,51.501-13.161         c16.188,0.294,32.241,3.987,42.632,10.672c10.009,6.437,18.387,16.06,22.027,27.668         C373.999,197.72,374.482,211.079,375.336,224.426z"/>
						</g>
						<g>
							<path style="fill-rule:evenodd;clip-rule:evenodd;fill:#1A4E72;" d="M250.096,274.524         c-0.584,7.645-7.254,13.374-14.899,12.792c-7.647-0.584-13.371-7.25-12.79-14.895c0.581-7.648,7.251-13.376,14.897-12.79         C244.95,260.213,250.676,266.879,250.096,274.524z"/>
						</g>
					</g>
					<g>
						<path style="fill-rule:evenodd;clip-rule:evenodd;fill:#FFFFFF;" d="M236.479,266.023c5.441-0.318,9.565,4.879,6.822,10.904        c-2.874,6.319-13.579,4.57-14.712-0.574C227.103,269.619,232.023,266.283,236.479,266.023z"/>
					</g>
				</g>
				<g>
					<g>
						<g>
							<path style="fill:#FFCBD5;" d="M329.645,101.416c0,0,8.642-9.105,11.667-25.151c-2.312-17.401-0.739-47.73-13.71-55.887         c-19.083-11.999-48.678-6.949-62.377,5.976c-11.758,11.109-22.93,36.298-24.554,61.699         c-1.641,25.696,7.775,47.445,38.694,39.084c2.046,10.332,5.179,27.391,6.06,31.117c2.565,10.921,12.849,27.837,53.879-7.682         C339.239,151.775,329.618,107.916,329.645,101.416z"/>
						</g>
						<g>
							<g>
								<path style="fill-rule:evenodd;clip-rule:evenodd;fill:#FF8D9D;" d="M279.366,127.138c9.541-2.007,21.1-13.207,21.1-13.207          s-0.281,19.121-17.892,29.878L279.366,127.138z"/>
							</g>
							<g>
								<g>
									<g>
										<path style="fill-rule:evenodd;clip-rule:evenodd;fill:#FFFFFF;" d="M294.94,72.645c-2.545-3.441-5.251-5.205-7.762-6.01            l-3.938,2.667l-0.314,4.147c0.588,0.242,1.237,0.492,1.923,0.69C289.622,75.515,294.94,72.645,294.94,72.645"/>
									</g>
									<g>
										<path style="fill-rule:evenodd;clip-rule:evenodd;fill:#1A4E72;" d="M276.419,68.174c0,0,4.867-3.425,10.774-1.553            c0.12,0.485,0.416,1.486,0.396,2.009c-0.174,2.402-2.118,4.288-4.647,4.833C278.027,71.442,276.419,68.174,276.419,68.174            "/>
									</g>
								</g>
								<g>
									<g>
										<path style="fill-rule:evenodd;clip-rule:evenodd;fill:#FFFFFF;" d="M261.322,66.751c-2.39-3.226-4.882-4.849-7.237-5.579            l-3.566,2.782l-0.333,3.559c0.531,0.217,1.158,0.458,1.773,0.637C256.38,69.437,261.322,66.751,261.322,66.751"/>
									</g>
									<g>
										<path style="fill-rule:evenodd;clip-rule:evenodd;fill:#1A4E72;" d="M244.147,62.61c0,0,4.506-3.167,9.978-1.445            c0.123,0.468,0.402,1.384,0.376,1.876c-0.157,2.212-1.964,3.979-4.315,4.486C245.644,65.639,244.147,62.61,244.147,62.61"/>
									</g>
								</g>
								<g>
									<path style="fill:#FF8D9D;" d="M281.083,83.267c-2.788,3.519-2.179,8.649,1.336,11.454           c3.541,2.771,8.659,2.18,11.454-1.355c2.784-3.536,2.191-8.663-1.346-11.444C289.002,79.14,283.881,79.726,281.083,83.267"/>
								</g>
								<g>
									<path style="fill:#FF8D9D;" d="M248.174,84.511c-1.808,2.282-4.761,3.355-7.471,3.061           c0.018-0.338,0.769-10.858,2.335-16.118c1.378,0.183,2.616,0.673,3.778,1.597           C250.359,75.853,250.956,80.973,248.174,84.511z"/>
								</g>
								<g>
									<path style="fill-rule:evenodd;clip-rule:evenodd;fill:#E34E6A;" d="M299.453,65.164l-2.431,2.036           c-6.267-7.445-16.584-6.845-20.335-5.441l-1.109-2.955C281.41,56.597,292.674,57.125,299.453,65.164z"/>
								</g>
								<g>
									<path style="fill-rule:evenodd;clip-rule:evenodd;fill:#E34E6A;" d="M265.603,59.735l-2.415,2.053           c-5.789-6.869-15.309-6.319-18.752-5.01l-1.12-2.976C248.749,51.776,259.264,52.246,265.603,59.735z"/>
								</g>
								<g>
									<g>
										<path style="fill-rule:evenodd;clip-rule:evenodd;fill:#FF8D9D;" d="M265.619,68.34            c-1.797-0.699-9.855,15.624-9.734,17.524c0.182,2.383,7.969,4.975,8.734,4.163            C266.784,87.709,268.318,69.387,265.619,68.34"/>
									</g>
									<g>
										<path style="fill:#FF8D9D;" d="M249.701,101.623c8.341,6.276,18.759,2.6,24.895-3.439l-2.57-2.595            c-5.043,4.988-13.521,8.092-20.151,3.131L249.701,101.623z"/>
									</g>
								</g>
							</g>
						</g>
					</g>
					<g>
						<g>
							<g>
								<path style="fill-rule:evenodd;clip-rule:evenodd;fill:#E34E6A;" d="M287.101,4.513c-2.65,0.005-5.072,0.06-7.004,0.147          c-21.479,1.001-35.635,8.178-41.971,23.506c-4.359,10.549-4.086,29.878-3.357,45.328c0.165,3.468,0.824,12.992,3.694,12.761          c2.236-0.179,2.758-6.85,3.021-8.396c1.899-11.097,2.538-21.342,7.389-26.863c5.623-6.401,16.351-7.214,26.525-9.066          c6.806-1.232,13.063-3.003,18.131-6.042c5.495-3.299,9.436-7.286,13.095-11.08c2.658-2.759,5.264-5.73,7.34-9.43          C304.943,11.928,295.958,8.411,287.101,4.513z"/>
							</g>
							<g>
								<path style="fill-rule:evenodd;clip-rule:evenodd;fill:#E34E6A;" d="M305.986,9.781c9.092-0.584,21.749-0.01,29.545,3.36          c13.446,5.81,21.465,18.829,24.513,34.583c1.705,8.81,1.682,18.359,1.007,27.869c-0.821,11.524-1.377,24.545,2.351,33.577          c5.835,14.143,18.769,24.823,27.867,37.605c4.784,6.724,8.099,12.889,11.752,21.152c3.014,6.818,7.643,17.672,4.7,25.855          c-4.568,12.713-22.67,9.751-32.567,15.783c-6.899,4.201-9.165,11.914-12.426,21.154          c-6.063,17.194-12.843,36.387-28.54,43.312c-14.46,6.379-28.937-2.419-32.568-13.429          c-3.398-10.303,1.798-20.893,0.672-31.896c-1.551-15.137-14.74-22.642-13.767-38.951c0.409-6.847,3.61-12.976,6.714-17.799          c3.186-4.944,7.72-9.03,9.404-15.108c1.984-7.182-0.404-14.374-0.338-22.83c0.088-10.86,5.576-20.684,10.073-27.868          c4.117-6.577,12.8-17.346,10.743-26.861c-1.846-8.56-8.462-13.904-14.437-19.476c-6.023-5.617-12.08-11.415-15.779-18.132          c-1.556-2.822-4.124-8.439-4.365-13.429c-0.315-6.517,2.259-14.596,6.38-17.129C299.09,9.793,302.546,10.005,305.986,9.781z          "/>
							</g>
						</g>
						<g>
							<path style="fill-rule:evenodd;clip-rule:evenodd;fill:#FFCBD5;" d="M339.128,89.468         c-3.817,6.186-15.982,13.653-21.405,10.313c-5.424-3.345-2.048-16.234,1.768-22.423c3.813-6.181,11.299-8.485,16.722-5.137         C341.634,75.559,342.94,83.286,339.128,89.468z"/>
						</g>
						<g>
							<g>
								<g>
									<path style="fill-rule:evenodd;clip-rule:evenodd;fill:#FFFFFF;" d="M313.24,226.392c6.238,2.865,5.756-14.908-0.227-11.76           C309.895,216.269,311.612,223.481,313.24,226.392z"/>
								</g>
								<g>
									<path style="fill-rule:evenodd;clip-rule:evenodd;fill:#FFFFFF;" d="M320.073,236.218c-0.582-1.329-2.5-3.738-5.079-2.361           c-3.372,1.794-3.681,9.452-4.379,12.464c-0.851,3.661-4.1,10.18-0.985,13.055c4.441,4.095,7.715-6.345,8.691-9.983           c0.519-1.934,0.839-3.878,1.198-5.537C320.127,241.015,321.199,238.779,320.073,236.218z"/>
								</g>
							</g>
							<g>
								<g>
									<path style="fill-rule:evenodd;clip-rule:evenodd;fill:#FFFFFF;" d="M342.582,30.137           c-3.827,0.316-9.612-2.593-15.119-5.788c-2.354-1.367-6.136-3.647-5.154-5.89c1.184-2.699,5.888-0.796,7.567-0.111           c5.315,2.175,11.302,5.882,13.907,8.789C344.046,28,343.396,29.474,342.582,30.137z"/>
								</g>
								<g>
									<path style="fill-rule:evenodd;clip-rule:evenodd;fill:#FFFFFF;" d="M324.696,29.867           c-1.359,6.032-13.872,0.88-11.401-3.622c1.077-1.951,8.059-1.72,10.567,0.494C324.758,27.542,324.93,28.815,324.696,29.867           z"/>
								</g>
								<g>
									<path style="fill-rule:evenodd;clip-rule:evenodd;fill:#FFFFFF;" d="M294.787,11.513c-0.252,2.183-3.316,3.056-6.483,2.747           c-2.546-0.246-7.305-1.879-6.113-4.57c0.523-1.191,2.885-2.216,5.524-2.026C290.808,7.878,295.12,8.703,294.787,11.513z"/>
								</g>
							</g>
						</g>
					</g>
				</g>
			</g>
		</g>
	</g>
</g>















</svg>
