<?xml version="1.0" encoding="UTF-8"?>
<!-- Generator: Adobe Illustrator 25.2.3, SVG Export Plug-In . SVG Version: 6.00 Build 0)  -->
<svg xmlns="http://www.w3.org/2000/svg" xmlns:xlink="http://www.w3.org/1999/xlink" version="1.1" id="Capa_1" x="0px" y="0px" viewBox="0 0 512 512" style="enable-background:new 0 0 512 512;" xml:space="preserve" width="312" height="512">
<g>
	<g>
		<g>
			<path style="fill-rule:evenodd;clip-rule:evenodd;fill:#F7BE4A;" d="M375.468,94.892c-1.637,1.335-1.957,3.523-2.799,5.408     c-1.592,3.569-3.448,6.782-7.967,7.289c-2.388,0.266-4.599-0.509-5.059,1.161c-0.418,1.466,1.49,2.481,1.961,2.988     c1.997,2.135,3.54,4.376,3.373,8.091c-0.221,4.645-3.206,10.72-0.328,11.408c2.113,0.514,3.458-3.611,4.192-4.948     c2.378-4.32,3.759-7.478,8.231-8.951c1.364-0.451,4.841-0.058,5.213-2.111c0.374-2.093-2.473-2.857-3.288-3.935     c-1.277-1.674-2.091-4.219-2.054-7.151c0.042-2.753,1.155-6.206,0.794-8.166C377.724,95.071,376.864,94.09,375.468,94.892z"/>
		</g>
		<g>
			<path style="fill-rule:evenodd;clip-rule:evenodd;fill:#F7BE4A;" d="M83.611,55.926c0.813,1.951,0.061,4.03-0.087,6.092     c-0.283,3.894-0.167,7.604,3.577,10.187c1.98,1.362,4.295,1.723,3.912,3.412c-0.325,1.492-2.487,1.483-3.142,1.706     c-2.768,0.94-5.188,2.186-6.794,5.537c-2.001,4.202-2.24,10.965-5.102,10.213c-2.104-0.548-1.342-4.817-1.357-6.344     c-0.055-4.929,0.22-8.367-3.024-11.779c-0.99-1.042-4.241-2.336-3.597-4.323c0.658-2.023,3.529-1.347,4.757-1.914     c1.914-0.872,3.836-2.731,5.188-5.333c1.264-2.445,1.914-6.014,3.159-7.57C81.539,55.02,82.759,54.559,83.611,55.926z"/>
		</g>
		<g>
			<path style="fill-rule:evenodd;clip-rule:evenodd;fill:#F7BE4A;" d="M219.108,85.01c-1.754,1.037-4.467,1.701-4.116,4.105     c0.453,3.034,4.22,2.016,6.091,3.039c3.15,1.725,3.582,6.753,5.481,10.628c0.499,1.003,1.035,2.404,2.8,2.164     c2.259-0.31,2.104-2.556,1.99-5.181c-0.209-4.699,0.522-8.956,3.11-11.171c1.56-1.335,3.819-1.178,3.445-3.741     c-0.366-2.539-2.624-1.718-4.753-2.304c-3.391-0.938-5.06-4.863-6.596-8.743c-0.345-0.867-0.58-2.077-0.926-2.498     c-1.254-1.5-4.284-1.136-4.879,1.103c-0.335,1.25,0.368,2.765,0.511,4.257C221.577,80.072,220.917,82.696,219.108,85.01z"/>
		</g>
		<g>
			<path style="fill-rule:evenodd;clip-rule:evenodd;fill:#F7BE4A;" d="M487.861,456.785c1.754,1.037,4.467,1.701,4.116,4.105     c-0.453,3.034-4.22,2.016-6.091,3.039c-3.15,1.725-3.582,6.753-5.481,10.628c-0.499,1.003-1.035,2.404-2.8,2.164     c-2.259-0.31-2.104-2.556-1.99-5.181c0.209-4.699-0.522-8.956-3.11-11.171c-1.56-1.335-3.819-1.178-3.445-3.741     c0.366-2.539,2.624-1.718,4.753-2.304c3.391-0.938,5.06-4.863,6.596-8.743c0.345-0.867,0.58-2.077,0.926-2.498     c1.254-1.5,4.284-1.136,4.879,1.103c0.335,1.25-0.368,2.765-0.511,4.257C485.392,451.847,486.052,454.471,487.861,456.785z"/>
		</g>
		<g>
			<path style="fill-rule:evenodd;clip-rule:evenodd;fill:#F7BE4A;" d="M5.01,91.645c-0.94,2.634,0.287,4.211-0.969,7.073     c-0.704,1.607-4.043,2.607-4.041,4.357c0.008,2.328,3.876,2.035,5.119,3.647c1.1,1.415,0.436,4.972,2.819,5.074     c2.422,0.095,1.816-4.604,3.11-6.853c0.825-1.463,3.475-1.914,3.279-3.967c-0.138-1.381-3.01-1.742-4.039-2.566     c-2.149-1.723-1.577-5.018-2.86-6.993C6.378,90.923,5.885,91.311,5.01,91.645z"/>
		</g>
		<g>
			<path style="fill-rule:evenodd;clip-rule:evenodd;fill:#F7BE4A;" d="M239.294,125.048c-0.467,2.758,1.018,4.098,0.281,7.134     c-0.412,1.706-3.523,3.276-3.215,4.999c0.416,2.29,4.172,1.325,5.676,2.697c1.331,1.199,1.299,4.817,3.664,4.5     c2.403-0.327,0.983-4.851,1.863-7.291c0.556-1.585,3.087-2.491,2.536-4.475c-0.379-1.34-3.269-1.192-4.427-1.822     c-2.418-1.318-2.429-4.667-4.038-6.385C240.514,124.098,240.096,124.568,239.294,125.048z"/>
		</g>
		<g>
			<path style="fill-rule:evenodd;clip-rule:evenodd;fill:#F7BE4A;" d="M194.057,330.879c-0.941,2.634,0.287,4.211-0.969,7.071     c-0.704,1.609-4.043,2.612-4.04,4.359c0.008,2.331,3.876,2.038,5.119,3.649c1.1,1.415,0.436,4.97,2.819,5.071     c2.422,0.097,1.816-4.604,3.11-6.853c0.825-1.461,3.474-1.914,3.279-3.964c-0.139-1.386-3.01-1.745-4.039-2.569     c-2.15-1.721-1.578-5.018-2.861-6.991C195.425,330.155,194.931,330.545,194.057,330.879z"/>
		</g>
	</g>
	<g>
		<g>
			<rect x="293.07" y="147.389" style="fill:#E34E6A;" width="68.417" height="362.489"/>
		</g>
		<g>
			<g>
				<g>
					<g>
						<g>
							<path style="fill-rule:evenodd;clip-rule:evenodd;fill:#BAD6E9;" d="M37.466,190.162c17.067-2.12,33.633-4.737,49.195-8.362         c7.148,28.118,15.442,55.082,22.83,82.96c0.971,0.935,2.481-1.279,3.537-2.251c8.165-7.504,16.575-15.656,25.079-23.473         c14.239-13.09,30.106-25.472,45.981-37.619c10.24-7.839,21.153-15.571,32.475-23.153c5.959-3.991,12.316-8.762,19.293-9.644         c11.919-1.51,12.886,8.585,13.183,18.648c0.663,22.428-2.823,43.698-7.718,61.092c-1.812,6.446-3.614,11.856-6.43,16.72         c-8.025,13.863-21.14,25.755-33.44,35.692c-15.965,12.896-35.716,26.024-54.661,37.619         c-13.951,8.537-29.82,16.09-47.589,21.864c-8.193,2.665-15.225,5.311-25.724,4.502         c-36.195-2.787-34.325-46.529-36.012-84.887C36.102,248.828,36.255,219.469,37.466,190.162z"/>
						</g>
						<g style="opacity:0.41;">
							<path style="fill-rule:evenodd;clip-rule:evenodd;fill:#FFFFFF;" d="M37.466,190.162c17.067-2.12,33.633-4.737,49.195-8.362         c7.148,28.118,15.442,55.082,22.83,82.96c0.971,0.935,2.481-1.279,3.537-2.251c8.165-7.504,16.575-15.656,25.079-23.473         c14.239-13.09,30.106-25.472,45.981-37.619c10.24-7.839,21.153-15.571,32.475-23.153c5.959-3.991,12.316-8.762,19.293-9.644         c11.919-1.51,12.886,8.585,13.183,18.648c0.663,22.428-2.823,43.698-7.718,61.092c-1.812,6.446-3.614,11.856-6.43,16.72         c-8.025,13.863-21.14,25.755-33.44,35.692c-15.965,12.896-35.716,26.024-54.661,37.619         c-13.951,8.537-29.82,16.09-47.589,21.864c-8.193,2.665-15.225,5.311-25.724,4.502         c-36.195-2.787-34.325-46.529-36.012-84.887C36.102,248.828,36.255,219.469,37.466,190.162z"/>
						</g>
						<g style="opacity:0.25;">
							<path style="fill:#1A4E72;" d="M109.17,299.163c1.252,0.017,2.541-3.579,3.215-5.464c2.472-6.916,4.598-12.867,7.073-19.615         c2.604-7.095,6.843-17.267,8.371-25.445c-4.998,4.713-9.946,9.406-14.801,13.87c-0.934,0.86-2.223,2.683-3.18,2.445         c-0.86,8.047-1.571,16.901-1.965,24.885C107.726,293.04,107.48,299.144,109.17,299.163z"/>
						</g>
					</g>
					<g>
						<g style="opacity:0.25;">
							<path style="fill:#1A4E72;" d="M45.062,216.753c14.441-4.228,30.632-10.298,46.416-16.744         c-1.432-5.256-2.838-10.538-4.205-15.859c-11.962,1.665-23.816,3.029-35.562,4.09c-4.702,0.686-9.45,1.326-14.244,1.922         c-0.36,8.713-0.614,17.439-0.774,26.204c0.203,0.339,0.435,0.669,0.71,0.993C39.736,219.082,42.657,217.458,45.062,216.753z"/>
						</g>
						<g>
							<path style="fill:#FFFFFF;" d="M53.356,202.074c0,2.605-2.112,4.718-4.717,4.718c-2.605,0-4.718-2.113-4.718-4.718         s2.113-4.718,4.718-4.718C51.244,197.356,53.356,199.469,53.356,202.074z"/>
						</g>
					</g>
				</g>
				<g>
					<g>
						<path style="fill-rule:evenodd;clip-rule:evenodd;fill:#FFFFFF;" d="M54.596,328.59c3.996-0.62,17.492,8.781,14.009,13.172        c-2.844,3.577-14.565-4.997-15.596-9.656C52.738,330.901,52.952,330.077,54.596,328.59z"/>
					</g>
					<g>
						<path style="fill-rule:evenodd;clip-rule:evenodd;fill:#FFFFFF;" d="M61.329,350.124c1.908-5.091,8.466-0.119,7.271,2.9        C66.993,357.09,59.644,354.614,61.329,350.124z"/>
					</g>
					<g>
						<path style="fill-rule:evenodd;clip-rule:evenodd;fill:#FFFFFF;" d="M74.873,345.253c2.719-4.378,12.644,3.266,9.646,6.925        c-1.261,1.541-2.646,1.115-4.972,0.085C76.109,350.739,72.97,348.316,74.873,345.253z"/>
					</g>
				</g>
			</g>
			<g>
				<g>
					<g>
						<path style="fill-rule:evenodd;clip-rule:evenodd;fill:#FFCBD5;" d="M43.115,157.299c0,0,49.744,13.536,47.747,21.776        c7.753-32.004-5.149-52.383-6.9-55.753c-3.838-7.376-9.361-12.54-17.368-18.532c-5.761-4.311-16.161-12.862-20.154-6.753        c-2.126,3.252,1.162,7.822,3.605,10.674c2.988,3.492,7.6,5.946,9.91,9.125c0.761,3.429-14.906,32.424-16.446,34.578        C42.405,153.955,42.12,155.514,43.115,157.299"/>
					</g>
				</g>
				<g>
					<g>
						<path style="fill-rule:evenodd;clip-rule:evenodd;fill:#1A4E72;" d="M39.786,73.53c1.491-0.404,14.571-1.243,16.72,0.642        c2.723,2.389,1.285,14.437,1.285,18.971c0,4.771,0.332,13.974,1.608,18.971c1.348,5.275,4.96,11.876,7.716,17.364        c5.917,11.767,11.792,22.181,17.364,32.795c1.742,3.32,2.8,5.253,4.18,8.362c2.228,5.016,3.973,11.679-0.964,15.11        c-3.174,2.21-14.213,2.382-19.293,2.574c-15.799,0.591-26.931,0.647-43.086,0c-8.601-0.344-19.88-0.267-21.865-6.431        c-1.12-3.477,0.374-7.866,1.607-10.611c3.547-7.899,9.245-17.192,13.184-24.437c2.96-5.442,5.692-11.411,8.36-16.72        c2.978-5.922,6.726-12.249,8.039-17.042c2.135-7.795,1.542-18.942,1.608-31.19C36.271,77.69,35.862,74.589,39.786,73.53z"/>
					</g>
					<g>
						<g>
							<path style="fill-rule:evenodd;clip-rule:evenodd;fill:#E34E6A;" d="M84.802,179.958c-2.862,4.165-8.875,2.913-13.826,2.571         c-5.07-0.349-10.542-0.88-15.756-0.962c-11.011-0.177-22.687,0.7-32.475,0c-3.785-0.274-7.261-0.982-9.325-3.538         c0.241-8.309,3.947-15.649,7.397-22.508c1.254-2.498,2.605-4.904,4.501-5.466c6.052-1.793,12.059,6.566,18.327,6.111         c7.488-0.548,9.369-16.659,17.364-17.042c8.546-0.412,10.738,13.589,13.504,18.971c2.037,3.962,4.271,6.821,6.109,9.966         C82.519,171.305,84.888,174.959,84.802,179.958z"/>
						</g>
						<g>
							<path style="fill-rule:evenodd;clip-rule:evenodd;fill:#E34E6A;" d="M41.103,145.932c1.936-1.732,5.37-3.082,7.026-0.611         c2.605,3.887-5.977,9.86-8.603,7.018C37.831,150.507,38.929,147.883,41.103,145.932z"/>
						</g>
					</g>
				</g>
				<g>
					<g>
						<path style="fill-rule:evenodd;clip-rule:evenodd;fill:#FFCBD5;" d="M29.392,107.797c-6.191,3.829-8.096,9.915-7.594,15.062        c-4.529,3.768-5.791,9.683-4.04,12.898c-0.854-0.051-1.56,1.185-1.735,1.868c-1.3,4.27-2.962,7.824,1.425,12.031        c3.592,3.431,19.06,6.518,20.215-0.046c0.279-1.558-0.637-3.087-2.365-3.797c4.124,0.613,10.939-4.674,4.456-9.944        c1.468,0.361,3.744,0.528,5.425-0.427c5.085-2.883,3.058-9.053-2.14-12.893c0.6-0.78,1.37-2.113,1.753-3.308        c1.868-5.866,0.837-19.996-5.579-26.308c-3.67-3.613-11.012-4.718-12.547,2.278C25.845,98.951,28.313,104.049,29.392,107.797"/>
					</g>
					<g>
						<g>
							<path style="fill-rule:evenodd;clip-rule:evenodd;fill:#FF8D9D;" d="M29.974,90.618         c10.623,5.408,15.576,20.764,14.671,29.043c2.551-5.866,1.536-18.534-4.347-25.535         C37.142,90.368,33.633,88.827,29.974,90.618"/>
						</g>
						<g>
							<path style="fill-rule:evenodd;clip-rule:evenodd;fill:#FF8D9D;" d="M29.392,107.797c-1.874,2.966-0.691,8.304,4.024,13.15         c3.932,4.042,10.899,5.789,12.879,9.426c1.284,2.355-0.15,4.047-1.497,5.261c6.705-3.341,2.997-9.547-1.757-13.085         c-1.288,0.414-1.55,0.232-2.355,0.012C35.346,120.223,32.008,112.581,29.392,107.797"/>
						</g>
						<g>
							<path style="fill-rule:evenodd;clip-rule:evenodd;fill:#FF8D9D;" d="M21.798,122.86         c-2.296,9.925,12.771,11.866,16.232,17.354c0.568,0.897,1.181,4.689-2.732,5.6c6.454,0.528,9.577-5.845,5.107-9.664         c-1.61-1.376-4.769-2.147-7.551-3.574C28.73,130.466,24.877,127.885,21.798,122.86"/>
						</g>
						<g>
							<path style="fill-rule:evenodd;clip-rule:evenodd;fill:#FF8D9D;" d="M17.759,135.758c-0.198,7.785,13.694,9.937,15.69,13.262         c0.638,1.059,0.772,3.218-0.925,4.308c4.035,0.138,8.267-5.181,2.776-7.514C29.471,143.982,23.16,142.518,17.759,135.758"/>
						</g>
					</g>
				</g>
			</g>
		</g>
		<g>
			<g>
				<path style="fill-rule:evenodd;clip-rule:evenodd;fill:#FFCBD5;" d="M295.089,127.146l1.781,33.129      c15.9,37.667,53.452,17.238,59.397,2.864c1.335-3.228-8.582-65.468-8.582-65.468c2.761,0.524,6.901,0.291,11.02-1.284      c8.319-3.186,16.417-15.45,8.917-21.508c-3.815-3.08-6.689-2.229-10.381-2.445c-0.044-17.888-3.385-36.722-27.181-47.66      c-19.47-8.948-47.121-0.431-58.333,19.94c-2.805,5.11-5.149,13.063-5.986,19.111c-1.253,8.992-0.39,21.878,2.332,32.16      C271.452,108.808,279.017,122.704,295.089,127.146z"/>
			</g>
			<g>
				<g>
					<g>
						<g>
							<path style="fill-rule:evenodd;clip-rule:evenodd;fill:#FFFFFF;" d="M316.516,71.472c-3.16-3.206-6.218-4.658-8.95-5.121         c0,0-4.551,3.174-4.745,3.165l1.261,4.523c0.669,0.174,1.403,0.37,2.175,0.481C311.412,75.248,316.516,71.472,316.516,71.472         "/>
						</g>
						<g>
							<path style="fill-rule:evenodd;clip-rule:evenodd;fill:#1A4E72;" d="M296.608,69.561c0,0,4.558-4.291,10.962-3.213         c0.201,0.499,0.679,1.481,0.719,2.04c0.17,2.508-1.568,4.788-4.119,5.701C298.763,72.711,296.608,69.561,296.608,69.561"/>
						</g>
					</g>
					<g>
						<path style="fill:#1A4E72;" d="M295.934,62.849c3.684-2.023,14.341-4.158,21.96,2.648l2.216-2.484        c-8.229-7.352-20.031-6.232-25.776-3.08L295.934,62.849z"/>
					</g>
				</g>
				<g>
					<g>
						<g>
							<path style="fill-rule:evenodd;clip-rule:evenodd;fill:#FFFFFF;" d="M280.682,70.309c-2.916-2.956-5.817-4.274-8.341-4.71         l-2.276,2.762l-0.85,4.397c0.603,0.154,1.249,0.284,1.941,0.382C275.941,73.825,280.682,70.309,280.682,70.309"/>
						</g>
						<g>
							<path style="fill-rule:evenodd;clip-rule:evenodd;fill:#1A4E72;" d="M262.204,68.55c0,0,4.226-3.984,10.175-2.983         c0.192,0.463,0.618,1.371,0.659,1.892c0.162,2.326-1.449,4.432-3.829,5.299C264.202,71.468,262.204,68.55,262.204,68.55"/>
						</g>
					</g>
					<g>
						<path style="fill:#1A4E72;" d="M261.633,62.427c3.389-1.868,13.216-3.843,20.247,2.433l2.217-2.481        c-7.693-6.862-18.703-5.811-24.064-2.876L261.633,62.427z"/>
					</g>
				</g>
				<g>
					<path style="fill-rule:evenodd;clip-rule:evenodd;fill:#FF8D9D;" d="M327.279,112.937       c-7.123,11.389-18.444,15.67-32.169,14.209l0.95,18.043C307.749,144.348,326.284,135.603,327.279,112.937"/>
				</g>
				<g>
					<g>
						<path style="fill-rule:evenodd;clip-rule:evenodd;fill:#FF8D9D;" d="M286.113,67.016c-1.743-0.266-5.59,15.927-5.092,17.56        c0.634,2.106,8.101,2.83,8.625,1.946C291.108,84.01,288.74,67.397,286.113,67.016"/>
					</g>
					<g>
						<path style="fill:#FF8D9D;" d="M281.777,105.447c9.175,2.6,16.84-3.94,20.095-11.122l-3.04-1.364        c-2.681,5.915-8.875,11.343-16.158,9.285L281.777,105.447z"/>
					</g>
					<g>
						<path style="fill:#FF8D9D;" d="M309.123,81.914c-2.38,4.09-0.985,9.334,3.097,11.711c4.085,2.372,9.327,0.993,11.7-3.092        c2.392-4.095,0.998-9.329-3.081-11.713C316.745,76.447,311.509,77.828,309.123,81.914"/>
					</g>
					<g>
						<path style="fill:#FF8D9D;" d="M274.015,91.851c-1.323,2.283-3.551,3.678-5.957,4.093c-1.382-5.222-2.275-11.122-2.664-16.843        c1.865-0.269,3.796,0.032,5.533,1.042C275.014,82.522,276.401,87.756,274.015,91.851"/>
					</g>
				</g>
			</g>
			<g>
				<g>
					<path style="fill-rule:evenodd;clip-rule:evenodd;fill:#1A4E72;" d="M359.882,24.689c-3.039-2.551-9.352-5.517-12.935-5.997       c-5.863-0.795-11.4,2.728-16.509,0.138c-5.666-2.864-6.144-8.871-9.592-11.738c-9.33-7.764-20.525-5.004-26.956-1.328       c-4.365,2.506-6.752,7.107-11.848,8.001c-7.649,1.345-17.112-6.15-25.862-5.83c-7.363,0.281-15.49,4.565-20.08,12.445       c-9.031,15.503,6.152,35.036,23.625,31.724c4.072-0.773,7.202-3.237,9.668-5.149c2.704-2.074,4.872-5.665,8.81-7.189       c5.571-2.159,13.766,3.429,20.672,3.305c3.457-0.065,7.173-1.64,9.923-2.954c3.293-1.558,5.213-3.976,9.931-2.939       c4.433,0.972,7.44,3.974,9.523,6.567c6.924,8.614,7.074,21.745,8.429,33.141c0.367,3.114,0.936,9.535,4.088,10.601       c4.757,1.602,6.511-6.734,10.054-11.088c2.33-2.859,6.149-3.526,8.751-6.21C371.849,57.581,372.335,35.094,359.882,24.689"/>
				</g>
				<g>
					<g>
						<g>
							<path style="fill-rule:evenodd;clip-rule:evenodd;fill:#FFFFFF;" d="M357.706,58.157c-1.15-1.783-1.225-5.379-1.077-8.912         c0.05-1.514,0.19-3.959,1.539-4.061c1.638-0.116,1.929,2.685,2.03,3.686c0.311,3.177,0.04,7.075-0.71,9.109         C359.132,58.337,358.236,58.39,357.706,58.157z"/>
						</g>
						<g>
							<path style="fill-rule:evenodd;clip-rule:evenodd;fill:#FFFFFF;" d="M351.372,43.202c-3.31,0.899-4.033-6.581-1.179-6.538         c1.234,0.019,2.932,3.513,2.498,5.311C352.527,42.625,351.942,43.04,351.372,43.202z"/>
						</g>
						<g>
							<path style="fill-rule:evenodd;clip-rule:evenodd;fill:#FFFFFF;" d="M354.02,34.498c-1.135,0.438-2.363-0.843-3.033-2.469         c-0.545-1.313-0.973-4.076,0.657-4.19c0.721-0.056,1.84,0.836,2.426,2.186C354.776,31.598,355.485,33.931,354.02,34.498z"/>
						</g>
					</g>
					<g>
						<g>
							<path style="fill-rule:evenodd;clip-rule:evenodd;fill:#FFFFFF;" d="M260.351,18.014c-2.224,1.701-6.93,2.198-11.58,2.409         c-1.986,0.087-5.21,0.192-5.492-1.587c-0.34-2.123,3.312-2.818,4.609-3.058c4.133-0.754,9.27-0.846,12.016-0.087         C260.415,16.124,260.588,17.284,260.351,18.014z"/>
						</g>
						<g>
							<path style="fill-rule:evenodd;clip-rule:evenodd;fill:#FFFFFF;" d="M249.259,24.91c1.543,4.245-8.19,6.019-8.44,2.268         c-0.115-1.611,4.266-4.231,6.685-3.863C248.371,23.459,248.978,24.171,249.259,24.91z"/>
						</g>
					</g>
				</g>
			</g>
		</g>
		<g>
			<g>
				<path style="fill:#BAD6E9;" d="M441.152,422.626c-4.843-36.432-14.471-71.019-14.471-112.539      c0-33.769,9.376-61.887,13.184-92.922c1.271-10.361,3.815-24.013-0.642-32.477c-2.834-5.382-10.103-9.588-16.722-12.862      c-20.753-10.262-42.235-17.432-66.558-23.473c-0.273-0.058-0.303,0.126-0.322,0.322c-2.035,29.419-3.121,58.453-5.466,87.138      c-2.327,28.488-5.074,56.655-7.395,85.206c-2.292,28.193-4.964,57.784-4.501,88.102c0.445,29.177,0.275,71.131-0.749,100.756      h110.051C446.232,483.929,444.412,447.158,441.152,422.626z"/>
			</g>
			<g>
				<g>
					<path style="fill-rule:evenodd;clip-rule:evenodd;fill:#BAD6E9;" d="M355.943,143.851c-1.533,0.334-1.174,2.556-1.286,3.538       c-1.116,9.78-1.447,20.468-2.251,30.868c-2.479,32.014-4.938,64.283-7.716,96.14c-0.2,2.29-1.407,5.408,0.643,7.395       c3.609-0.019,5.224-3.824,6.752-6.431c4.8-8.2,8.474-17.257,12.861-26.688c2.573-5.53,5.086-11.689,8.039-18.326       c2.416-5.432,7.427-13.705,6.752-19.615c-0.345-3.039-2.865-6.002-4.501-8.682c-1.701-2.786-3.764-5.2-4.501-8.36       c3.782-1.556,11.662,1.657,14.148-2.571c1.281-2.181-0.67-7.231-1.608-10.611c-1.916-6.903-3.647-14.565-5.788-21.222       c-1.173-3.644-2.447-8.527-5.144-10.611C368.708,145.862,360.724,144.706,355.943,143.851z"/>
				</g>
				<g style="opacity:0.41;">
					<path style="fill-rule:evenodd;clip-rule:evenodd;fill:#FFFFFF;" d="M355.943,143.851c-1.533,0.334-1.174,2.556-1.286,3.538       c-1.116,9.78-1.447,20.468-2.251,30.868c-2.479,32.014-4.938,64.283-7.716,96.14c-0.2,2.29-1.407,5.408,0.643,7.395       c3.609-0.019,5.224-3.824,6.752-6.431c4.8-8.2,8.474-17.257,12.861-26.688c2.573-5.53,5.086-11.689,8.039-18.326       c2.416-5.432,7.427-13.705,6.752-19.615c-0.345-3.039-2.865-6.002-4.501-8.682c-1.701-2.786-3.764-5.2-4.501-8.36       c3.782-1.556,11.662,1.657,14.148-2.571c1.281-2.181-0.67-7.231-1.608-10.611c-1.916-6.903-3.647-14.565-5.788-21.222       c-1.173-3.644-2.447-8.527-5.144-10.611C368.708,145.862,360.724,144.706,355.943,143.851z"/>
				</g>
			</g>
			<g style="opacity:0.25;">
				<path style="fill-rule:evenodd;clip-rule:evenodd;fill:#1A4E72;" d="M415.268,412.856c-18.373,0.109-36.491,0.477-52.293,3.157      c1.701,13.773,0.279,28.154,5.967,38.956c3.701,7.032,12.209,12.789,19.303,17.897c2.609,1.88,5.68,4.102,8.423,3.862      c3.495-0.305,8.592-7.8,10.528-10.529c3.39-4.778,5.393-8.89,7.019-13.688c3.854-11.376,1.522-26.034,1.404-38.603      C415.649,413.411,415.676,412.917,415.268,412.856z"/>
			</g>
		</g>
		<g>
			<g>
				<g>
					<path style="fill:#BAD6E9;" d="M312.127,409.122c0.462-30.318-2.209-59.909-4.502-88.102       c-2.321-28.552-5.068-56.718-7.395-85.206c-2.343-28.685-3.429-57.719-5.465-87.138c-0.019-0.196-0.048-0.38-0.322-0.322       c-24.323,6.041-45.805,13.211-66.558,23.473c-6.619,3.274-13.887,7.48-16.721,12.862c-4.457,8.464-1.914,22.116-0.643,32.477       c3.808,31.035,13.184,59.153,13.184,92.922c0,41.52-9.628,76.108-14.471,112.539c-3.259,24.532-5.443,61.303-6.773,87.252       h110.051C311.488,480.253,311.681,438.299,312.127,409.122z"/>
				</g>
				<g>
					<g>
						<path style="fill-rule:evenodd;clip-rule:evenodd;fill:#BAD6E9;" d="M295.028,143.851c1.534,0.334,1.174,2.556,1.285,3.538        c1.117,9.78,1.445,20.468,2.251,30.868c2.479,32.014,4.939,64.283,7.716,96.14c0.2,2.29,1.407,5.408-0.642,7.395        c-3.61-0.019-5.225-3.824-6.753-6.431c-4.8-8.2-8.474-17.257-12.861-26.688c-2.573-5.53-5.087-11.689-8.039-18.326        c-2.417-5.432-7.426-13.705-6.753-19.615c0.348-3.039,2.867-6.002,4.502-8.682c1.702-2.786,3.765-5.2,4.502-8.36        c-3.785-1.556-11.663,1.657-14.148-2.571c-1.281-2.181,0.67-7.231,1.608-10.611c1.917-6.903,3.648-14.565,5.788-21.222        c1.173-3.644,2.448-8.527,5.146-10.611C282.263,145.862,290.249,144.706,295.028,143.851z"/>
					</g>
					<g style="opacity:0.41;">
						<path style="fill-rule:evenodd;clip-rule:evenodd;fill:#FFFFFF;" d="M295.028,143.851c1.534,0.334,1.174,2.556,1.285,3.538        c1.117,9.78,1.445,20.468,2.251,30.868c2.479,32.014,4.939,64.283,7.716,96.14c0.2,2.29,1.407,5.408-0.642,7.395        c-3.61-0.019-5.225-3.824-6.753-6.431c-4.8-8.2-8.474-17.257-12.861-26.688c-2.573-5.53-5.087-11.689-8.039-18.326        c-2.417-5.432-7.426-13.705-6.753-19.615c0.348-3.039,2.867-6.002,4.502-8.682c1.702-2.786,3.765-5.2,4.502-8.36        c-3.785-1.556-11.663,1.657-14.148-2.571c-1.281-2.181,0.67-7.231,1.608-10.611c1.917-6.903,3.648-14.565,5.788-21.222        c1.173-3.644,2.448-8.527,5.146-10.611C282.263,145.862,290.249,144.706,295.028,143.851z"/>
					</g>
				</g>
			</g>
			<g style="opacity:0.25;">
				<path style="fill-rule:evenodd;clip-rule:evenodd;fill:#1A4E72;" d="M234.888,412.856c18.373,0.109,36.491,0.477,52.292,3.157      c-1.7,13.773-0.277,28.154-5.966,38.956c-3.703,7.032-12.21,12.789-19.303,17.897c-2.609,1.88-5.68,4.102-8.423,3.862      c-3.495-0.305-8.592-7.8-10.529-10.529c-3.39-4.778-5.394-8.89-7.019-13.688c-3.854-11.376-1.523-26.034-1.405-38.603      C234.507,413.411,234.479,412.917,234.888,412.856z"/>
			</g>
			<g>
				<g>
					<path style="fill-rule:evenodd;clip-rule:evenodd;fill:#FFFFFF;" d="M214.113,195.905c1.471,3.235,0.743,9.183-0.326,14.982       c-0.456,2.479-1.261,6.484-3.522,6.329c-2.721-0.191-2.53-4.885-2.459-6.559c0.24-5.311,1.599-11.687,3.318-14.861       C211.796,195.296,213.283,195.401,214.113,195.905z"/>
				</g>
				<g>
					<path style="fill-rule:evenodd;clip-rule:evenodd;fill:#FFFFFF;" d="M219.459,211.575c5.683-0.698,5.097,11.81,0.402,11.064       c-2.037-0.33-4.011-6.487-2.867-9.361C217.413,212.248,218.472,211.701,219.459,211.575z"/>
				</g>
				<g>
					<path style="fill-rule:evenodd;clip-rule:evenodd;fill:#FFFFFF;" d="M212.083,229.962c1.979-0.461,3.697,1.936,4.416,4.79       c0.579,2.297,0.645,6.955-2.074,6.756c-1.202-0.085-2.831-1.825-3.491-4.182C210.158,234.563,209.529,230.55,212.083,229.962z"/>
				</g>
			</g>
		</g>
		<g>
			<g>
				<g>
					<path style="fill:#F7BE4A;" d="M367.776,372.671c-1.41-3.528-2.458-6.86-3.658-9.935c-2.61-6.683-5.651-12.775-8.469-18.74       c-5.912-12.508-11.529-24.328-16.613-37.852c-5.038-13.407-10.222-25.583-14.973-39.543c-2.192-6.446-4.503-13.48-7-20.417       c-2.378-6.61-4.119-9.629-7.71-14.085c-0.636-0.785-1.35-1.541-2.149-2.215c-9.047-7.168-45.051,12.561-53.952,17.078       c-9.593,4.863-17.575,10.056-26.828,14.144c-7.035,3.109-13.848,6.39-21.127,9.508c-1.118,0.48-2.376,1.034-3.587,1.473       c-0.49,0.174-1.032,0.409-1.592,0.557c0.114,2.423,2.853,6.918,3.827,9.123c7.292,16.477,13.842,32.312,21.156,47.902       c8.985,19.145,16.911,38.205,25.328,57.629c3.976,9.174,8.245,19.676,12.827,28.629c2.339,4.563,4.949,9.019,9.777,9.518       c4.394,0.453,10.64-2.016,14.175-3.242c9.193-3.191,17.495-6.094,25.683-9.644c12.262-5.311,25.062-10.419,36.654-16.179       c1.804-0.897,3.69-2.074,5.762-3.024c1.998-0.918,4.072-1.706,6.138-2.699c3.566-1.716,8.983-3.777,9.476-7.841       C371.23,380.294,369.059,375.879,367.776,372.671z"/>
				</g>
				<g>
					<g>
						<path style="fill-rule:evenodd;clip-rule:evenodd;fill:#FFFFFF;" d="M210.705,283.066c-1.462,1.866-4.737-5.743-2.16-6.002        C210.143,276.907,211.832,281.632,210.705,283.066z"/>
					</g>
					<g>
						<path style="fill-rule:evenodd;clip-rule:evenodd;fill:#F7BE4A;" d="M215.322,283.806c-1.024,0.191-2.054-1.771-1.776-2.864        C214.209,278.339,217.967,283.311,215.322,283.806z"/>
					</g>
					<g>
						<path style="fill-rule:evenodd;clip-rule:evenodd;fill:#F7BE4A;" d="M213.977,289.866c-0.169,0.119-0.223,0.119-0.34,0.199        c-1.365,0.945-3.013-1.856-2.356-3.703C212.153,283.912,215.69,288.674,213.977,289.866z"/>
					</g>
					<g>
						<path style="fill-rule:evenodd;clip-rule:evenodd;fill:#FFFFFF;" d="M216.207,294.278c0.114-0.027,0.286-0.121,0.35-0.022        c1.524,2.406,5.137,9.147,7.263,13.904c2.194,4.909,4.309,9.833,6.273,14.851c7.817,19.979,16.564,39.853,25.773,59.003        c3.969,8.256,7.859,16.644,11.715,25.191c0.901,2.001,1.718,3.177,2.324,5.813c0.148,0.63,0.867,1.526,0.131,1.922        c-1.379,0.736-2.126-1.573-2.622-2.455c-1.943-3.453-3.581-7.192-5.48-10.868c-12.26-23.768-23.811-48.712-33.748-75.667        c-3.281-8.9-7.045-18.36-11.146-27.161c-0.704-1.512-1.613-3.128-1.322-3.95C215.81,294.589,215.944,294.349,216.207,294.278z        "/>
					</g>
				</g>
				<g>
					<g>
						<path style="fill-rule:evenodd;clip-rule:evenodd;fill:#1A4E72;" d="M221.187,266.727c-1.101-2.256,1.138-6.523-1.257-8.166        c-1.043,0.906-0.744,2.532-0.787,3.916c-0.134,4.136-0.337,9.133,0.389,13.494c0.561,0.545,1.458,0.712,2.667,0.519        c1.528-3.39,1.947-9.959,2.127-15.239c0.122-3.622,0.436-6.729-2.618-7.551c-6.18-0.548-5.31,5.874-5.768,10.749        c-0.104,1.122-0.091,2.799-1.382,2.903c-1.706-0.366-1.169-2.481-1.123-3.611c0.167-4.01,0.76-8.682,3.134-10.746        c2.785-2.421,8.712-1.372,9.661,2.68c0.442,1.883,0.108,4.497,0.081,6.317c-0.073,4.325-0.286,7.946-0.969,11.653        c-0.296,1.611-0.594,4.051-1.79,4.686c-2.021,1.083-5.324-0.027-6.06-1.342c-0.709-1.27-0.804-5.028-0.847-7.32        c-0.062-3.458-0.117-10.381,1.631-12.227c0.473-0.495,1.822-1.105,2.561-1.049c1.936,0.145,2.461,2.816,2.476,5.45        C223.327,264.166,223.321,266.875,221.187,266.727z"/>
					</g>
					<g>
						<g>
							<path style="fill-rule:evenodd;clip-rule:evenodd;fill:#FFFFFF;" d="M288.082,266.759c0.034-0.007,2.014-0.518,2.972-0.201         c1.926,0.635,2.879,4.417,3.793,6.765c1.928,4.924,4.032,10.066,6.287,15.023c1.024,2.249,2.69,5.711,1.945,7.946         c-0.871,2.617-7.795,4.568-10.504,5.629c-8.268,3.235-14.833,5.903-22.526,9.605c-1.575,0.756-3.518,1.592-5.624,2.486         c-1.963,0.833-4.312,1.846-6.407,1.313c-2.195-0.557-3.329-3.504-4.423-5.67c-1.35-2.665-2.382-4.757-3.27-6.802         c-1.519-3.492-2.904-6.831-4.428-10.938c-0.505-1.357-1.135-3.002-0.984-4.146c0.379-2.893,6.575-5.539,9.021-6.758         c7.299-3.627,14.78-6.683,22.34-9.765C280.041,269.708,283.659,267.66,288.082,266.759z"/>
						</g>
						<g>
							<g style="opacity:0.25;">
								<path style="fill-rule:evenodd;clip-rule:evenodd;fill:#1A4E72;" d="M253.381,296.149c-2.085-2.166,0.311-3.172,2.862-4.408          c4.593-2.227,8.529-4.051,13.102-6.152c6.997-3.225,11.705-5.578,17.54-8.038c0.461-0.196,2.881,0.056,2.926,1.733          c0.035,1.296-2.721,2.137-4.028,2.731c-9.111,4.127-18.61,8.115-27.589,12.578          C256.757,295.308,255.264,296.636,253.381,296.149z"/>
							</g>
							<g style="opacity:0.25;">
								<path style="fill-rule:evenodd;clip-rule:evenodd;fill:#1A4E72;" d="M290.845,286.762c1.198-0.264,2.428,0.143,2.542,1.231          c0.159,1.514-2.198,1.972-3.856,2.721c-9.198,4.168-17.798,7.982-26.552,12.334c-1.407,0.698-3.245,2.145-4.426,2.057          c-0.943-0.07-2.055-1.238-1.902-2.152c0.164-0.962,7.119-3.935,8.127-4.415c8.549-4.049,17.925-7.49,25.73-11.578          C290.618,286.902,290.636,286.805,290.845,286.762z"/>
							</g>
						</g>
					</g>
				</g>
				<g>
					<g>
						<path style="fill-rule:evenodd;clip-rule:evenodd;fill:#FFFFFF;" d="M285.457,241.004c0.492-1.9,7.289-6.101,8.572-3.7        c1.046,1.958-5.037,5.527-7.311,5.086C286.127,242.278,285.8,242.026,285.457,241.004z"/>
					</g>
					<g>
						<path style="fill-rule:evenodd;clip-rule:evenodd;fill:#FFFFFF;" d="M296.352,242.159c-1.901-1.834,1.579-3.797,2.694-2.683        C300.547,240.979,298.028,243.776,296.352,242.159z"/>
					</g>
					<g>
						<path style="fill-rule:evenodd;clip-rule:evenodd;fill:#FFFFFF;" d="M296.793,235.183c-1.428-2.057,3.896-5.006,4.947-2.966        c0.445,0.863-0.013,1.396-0.918,2.234C299.477,235.69,297.789,236.622,296.793,235.183z"/>
					</g>
				</g>
			</g>
			<g>
				<g>
					<g>
						<path style="fill-rule:evenodd;clip-rule:evenodd;fill:#FFCBD5;" d="M286.569,326.007c-3.217,1.127-14.679,2.854-19.598,5.525        c-1.912,1.032-3.862,2.816-3.337,4.672c1.107,3.923,10.026,1.723,13.234,1.403c5.561-0.579,9.476-0.632,14.201-1.265        c-3.511,1.793-14.64,3.4-20.847,6.361c-2.589,1.238-5.345,3.145-4.57,5.505c0.988,3,8.516,2.04,11.059,1.793        c12.228-1.165,25.887-2.37,35.773-1.333c11.351,1.187,21.013,3.758,31.199,8.418c2.463,1.124,7.263,4.57,9.846,3.773        c1.208-0.371,3.294-3.012,3.916-4.114c2.13-3.79,3.241-8.929,4.902-15.273c0.637-2.414,1.379-4.798,1.753-7.957        c0.313-2.561,1.328-6.857,0.951-8.059c-0.555-1.88-4.461-4.492-6.8-6.029c-6.814-4.451-16.86-9.93-22.591-13.453        c-4.977-3.044-10.189-6.254-14.928-9.264c-4.477-2.854-19.143-12.307-23.498-6.986c-3.586,4.371,11.711,11.823,14.529,15.234        c-7.498-1.42-19.953-1.766-32.458,0.911c-3.281,0.71-10.246,1.841-10.208,4.839c0.042,4.105,5.628,3.402,8.229,3.588        c3.627,0.252,6.281,0.795,9.427,0.458c-4.334,1.766-14.679,3.063-19.484,5.864c-1.563,0.921-3.114,2.622-2.766,4.09        c0.815,3.383,6.209,2.033,9.909,1.82c5.051-0.286,8.34-0.128,11.819-0.4C286.332,326.091,286.453,326.05,286.569,326.007z"/>
					</g>
				</g>
				<g>
					<g>
						<g>
							<g>
								<path style="fill-rule:evenodd;clip-rule:evenodd;fill:#BAD6E9;" d="M438.606,326.893          c-28.845-7.059-56.672-15.14-84.243-23.473c-6.205,21.34-13.194,41.896-20.901,61.736          c32.951,16.753,63.826,34.197,100.321,48.232c11.897,4.575,25.261,9.644,39.871,9.646c14.604,0,25.127-5.767,31.189-14.149          c6.637-9.174,7.969-22.055,6.753-37.299c-2.21-27.706-8.239-52.594-14.792-75.882          c-6.477-23.022-16.035-44.193-25.723-64.952c-6.765-14.498-15.218-30.517-26.045-42.121          c-5.372-5.76-11.028-11.437-19.614-13.826c-1.786-0.499-5.641-0.4-7.716,0.642c-9.1,4.568-8.204,24.566-7.074,38.586          c1.221,15.169,3.049,29.141,5.467,41.479C421.514,283.161,430.381,304.482,438.606,326.893z"/>
							</g>
							<g style="opacity:0.41;">
								<path style="fill-rule:evenodd;clip-rule:evenodd;fill:#FFFFFF;" d="M438.606,326.893          c-28.845-7.059-56.672-15.14-84.243-23.473c-6.205,21.34-13.194,41.896-20.901,61.736          c32.951,16.753,63.826,34.197,100.321,48.232c11.897,4.575,25.261,9.644,39.871,9.646c14.604,0,25.127-5.767,31.189-14.149          c6.637-9.174,7.969-22.055,6.753-37.299c-2.21-27.706-8.239-52.594-14.792-75.882          c-6.477-23.022-16.035-44.193-25.723-64.952c-6.765-14.498-15.218-30.517-26.045-42.121          c-5.372-5.76-11.028-11.437-19.614-13.826c-1.786-0.499-5.641-0.4-7.716,0.642c-9.1,4.568-8.204,24.566-7.074,38.586          c1.221,15.169,3.049,29.141,5.467,41.479C421.514,283.161,430.381,304.482,438.606,326.893z"/>
							</g>
						</g>
						<g>
							<g style="opacity:0.25;">
								<path style="fill:#1A4E72;" d="M480.343,340.766c-0.811,1.423-7.714-1.58-11.255-2.893          c-10.21-3.79-19.887-7.839-30.501-11.03c-1.74-4.74-3.508-9.433-5.266-14.146c14.472,6.787,30.693,14.279,43.162,22.925          C478.104,336.746,481.281,339.118,480.343,340.766z"/>
							</g>
							<g style="opacity:0.25;">
								<path style="fill:#1A4E72;" d="M359.752,374.505c2.549-1.386,2.318-4.718,2.698-7.197c2.776-18.04,4.199-39.57,4.983-59.97          c-4.364-1.299-8.722-2.602-13.07-3.918c-6.201,21.324-13.183,41.862-20.88,61.685c0.092,0.07,0.184,0.136,0.279,0.203          c3.156,1.607,6.293,3.22,9.42,4.834c2.652,0.993,5.365,1.839,8.177,2.862C353.901,373.926,356.615,375.368,359.752,374.505z          "/>
							</g>
						</g>
					</g>
					<g>
						<path style="fill:#FFFFFF;" d="M355.175,358.27c0,2.605-2.112,4.715-4.717,4.715c-2.605,0-4.717-2.111-4.717-4.715        c0-2.607,2.112-4.718,4.717-4.718C353.063,353.553,355.175,355.663,355.175,358.27z"/>
					</g>
				</g>
			</g>
			<g>
				<g>
					<path style="fill-rule:evenodd;clip-rule:evenodd;fill:#FFFFFF;" d="M414.674,198.032c1.522,3.344,0.768,9.499-0.337,15.498       c-0.472,2.564-1.305,6.71-3.644,6.55c-2.817-0.199-2.619-5.055-2.547-6.79c0.251-5.496,1.655-12.089,3.434-15.372       C412.276,197.4,413.814,197.509,414.674,198.032z"/>
				</g>
				<g>
					<path style="fill-rule:evenodd;clip-rule:evenodd;fill:#FFFFFF;" d="M420.206,214.243c5.88-0.722,5.273,12.22,0.416,11.447       c-2.107-0.342-4.15-6.71-2.966-9.685C418.087,214.938,419.184,214.371,420.206,214.243z"/>
				</g>
				<g>
					<path style="fill-rule:evenodd;clip-rule:evenodd;fill:#FFFFFF;" d="M413.317,247.134c2.048-0.48,3.826,2.001,4.57,4.955       c0.6,2.377,0.666,7.194-2.146,6.988c-1.243-0.087-2.931-1.885-3.613-4.325C411.327,251.893,410.676,247.74,413.317,247.134z"/>
				</g>
			</g>
			<g>
				<g>
					<path style="fill-rule:evenodd;clip-rule:evenodd;fill:#FFFFFF;" d="M499.93,378.707c4.766,3.007,6.295-11.507,1.088-9.593       C498.302,370.11,498.92,376.165,499.93,378.707z"/>
				</g>
				<g>
					<path style="fill-rule:evenodd;clip-rule:evenodd;fill:#FFFFFF;" d="M504.426,387.44c-0.331-1.141-1.631-3.31-3.878-2.469       c-2.936,1.095-4.015,7.291-4.91,9.666c-1.089,2.888-4.438,7.841-2.215,10.514c3.171,3.816,6.965-4.325,8.152-7.18       c0.631-1.519,1.101-3.063,1.572-4.374C503.951,391.351,505.064,389.645,504.426,387.44z"/>
				</g>
			</g>
		</g>
	</g>
</g>















</svg>
